ffmpeg version 4.0.2 Copyright (c) 2000-2018 the FFmpeg developers
  built with Apple LLVM version 9.1.0 (clang-902.0.39.2)
  configuration: --prefix=/usr/local/Cellar/ffmpeg/4.0.2 --enable-shared --enable-pthreads --enable-version3 --enable-hardcoded-tables --enable-avresample --cc=clang --host-cflags= --host-ldflags= --enable-gpl --enable-libmp3lame --enable-libx264 --enable-libxvid --enable-opencl --enable-videotoolbox --disable-lzma
  libavutil      56. 14.100 / 56. 14.100
  libavcodec     58. 18.100 / 58. 18.100
  libavformat    58. 12.100 / 58. 12.100
  libavdevice    58.  3.100 / 58.  3.100
  libavfilter     7. 16.100 /  7. 16.100
  libavresample   4.  0.  0 /  4.  0.  0
  libswscale      5.  1.100 /  5.  1.100
  libswresample   3.  1.100 /  3.  1.100
  libpostproc    55.  1.100 / 55.  1.100
Input #0, image2pipe, from 'pipe:':
  Duration: N/A, bitrate: N/A
    Stream #0:0: Video: ppm, rgb24, 800x600, 20 fps, 20 tbr, 20 tbn, 20 tbc
Stream mapping:
  Stream #0:0 -> #0:0 (ppm (native) -> h264 (libx264))
[libx264 @ 0x7fe65d801800] using cpu capabilities: MMX2 SSE2Fast SSSE3 SSE4.2 AVX
[libx264 @ 0x7fe65d801800] profile High, level 3.1
[libx264 @ 0x7fe65d801800] 264 - core 152 r2854 e9a5903 - H.264/MPEG-4 AVC codec - Copyleft 2003-2017 - http://www.videolan.org/x264.html - options: cabac=1 ref=3 deblock=1:0:0 analyse=0x3:0x113 me=hex subme=7 psy=1 psy_rd=1.00:0.00 mixed_ref=1 me_range=16 chroma_me=1 trellis=1 8x8dct=1 cqm=0 deadzone=21,11 fast_pskip=1 chroma_qp_offset=-2 threads=6 lookahead_threads=1 sliced_threads=0 nr=0 decimate=1 interlaced=0 bluray_compat=0 constrained_intra=0 bframes=3 b_pyramid=2 b_adapt=1 b_bias=0 direct=1 weightb=1 open_gop=0 weightp=2 keyint=250 keyint_min=20 scenecut=40 intra_refresh=0 rc_lookahead=40 rc=abr mbtree=1 bitrate=400 ratetol=1.0 qcomp=0.60 qpmin=0 qpmax=69 qpstep=4 ip_ratio=1.40 aq=1:1.00
Output #0, mp4, to './mission_records/934cc863-282f-4f65-a7f9-b730b37b1772/video.mp4':
  Metadata:
    encoder         : Lavf58.12.100
    Stream #0:0: Video: h264 (libx264) (avc1 / 0x31637661), yuv420p, 800x600, q=-1--1, 400 kb/s, 20 fps, 10240 tbn, 20 tbc
    Metadata:
      encoder         : Lavc58.18.100 libx264
    Side data:
      cpb: bitrate max/min/avg: 0/0/400000 buffer size: 0 vbv_delay: -1
frame=    6 fps=0.0 q=0.0 size=       0kB time=00:00:00.00 bitrate=N/A speed=   0x    frame=   11 fps=9.1 q=0.0 size=       0kB time=00:00:00.00 bitrate=N/A speed=   0x    frame=   15 fps=8.2 q=0.0 size=       0kB time=00:00:00.00 bitrate=N/A speed=   0x    frame=   19 fps=7.9 q=0.0 size=       0kB time=00:00:00.00 bitrate=N/A speed=   0x    frame=   23 fps=7.9 q=0.0 size=       0kB time=00:00:00.00 bitrate=N/A speed=   0x    frame=   27 fps=7.9 q=0.0 size=       0kB time=00:00:00.00 bitrate=N/A speed=   0x    frame=   29 fps=7.3 q=0.0 size=       0kB time=00:00:00.00 bitrate=N/A speed=   0x    frame=   32 fps=7.1 q=0.0 size=       0kB time=00:00:00.00 bitrate=N/A speed=   0x    frame=   37 fps=7.3 q=0.0 size=       0kB time=00:00:00.00 bitrate=N/A speed=   0x    frame=   41 fps=7.2 q=0.0 size=       0kB time=00:00:00.00 bitrate=N/A speed=   0x    frame=   45 fps=7.2 q=0.0 size=       0kB time=00:00:00.00 bitrate=N/A speed=   0x    frame=   50 fps=7.4 q=0.0 size=       0kB time=00:00:00.00 bitrate=N/A speed=   0x    frame=   55 fps=7.4 q=39.0 size=       0kB time=00:00:00.10 bitrate=   3.8kbits/s speed=0.0135x    frame=   59 fps=7.4 q=35.0 size=       0kB time=00:00:00.30 bitrate=   1.3kbits/s speed=0.0375x    frame=   64 fps=7.4 q=39.0 size=       0kB time=00:00:00.55 bitrate=   0.7kbits/s speed=0.0639x    frame=   69 fps=7.4 q=39.0 size=       0kB time=00:00:00.80 bitrate=   0.5kbits/s speed=0.0863x    frame=   73 fps=7.5 q=37.0 size=       0kB time=00:00:01.00 bitrate=   0.4kbits/s speed=0.102x    frame=   78 fps=7.5 q=37.0 size=       0kB time=00:00:01.25 bitrate=   0.3kbits/s speed=0.121x    frame=   83 fps=7.6 q=37.0 size=       0kB time=00:00:01.50 bitrate=   0.3kbits/s speed=0.137x    frame=   87 fps=7.6 q=37.0 size=       0kB time=00:00:01.70 bitrate=   0.2kbits/s speed=0.148x    frame=   91 fps=7.5 q=36.0 size=       0kB time=00:00:01.90 bitrate=   0.2kbits/s speed=0.157x    frame=   96 fps=7.5 q=36.0 size=       0kB time=00:00:02.15 bitrate=   0.2kbits/s speed=0.169x    frame=  101 fps=7.6 q=36.0 size=       0kB time=00:00:02.40 bitrate=   0.2kbits/s speed=0.18x    frame=  106 fps=7.6 q=37.0 size=       0kB time=00:00:02.65 bitrate=   0.1kbits/s speed=0.191x    frame=  111 fps=7.7 q=37.0 size=       0kB time=00:00:02.90 bitrate=   0.1kbits/s speed= 0.2x    frame=  116 fps=7.7 q=36.0 size=       0kB time=00:00:03.15 bitrate=   0.1kbits/s speed=0.209x    frame=  120 fps=7.7 q=36.0 size=       0kB time=00:00:03.35 bitrate=   0.1kbits/s speed=0.215x    frame=  125 fps=7.7 q=34.0 size=       0kB time=00:00:03.60 bitrate=   0.1kbits/s speed=0.222x    frame=  130 fps=7.7 q=34.0 size=       0kB time=00:00:03.85 bitrate=   0.1kbits/s speed=0.229x    frame=  134 fps=7.7 q=34.0 size=       0kB time=00:00:04.05 bitrate=   0.1kbits/s speed=0.234x    frame=  139 fps=7.8 q=38.0 size=       0kB time=00:00:04.30 bitrate=   0.1kbits/s speed=0.24x    frame=  144 fps=7.8 q=37.0 size=       0kB time=00:00:04.55 bitrate=   0.1kbits/s speed=0.246x    frame=  149 fps=7.8 q=37.0 size=     256kB time=00:00:04.80 bitrate= 437.0kbits/s speed=0.252x    frame=  154 fps=7.8 q=34.0 size=     256kB time=00:00:05.05 bitrate= 415.3kbits/s speed=0.257x    frame=  159 fps=7.9 q=34.0 size=     256kB time=00:00:05.30 bitrate= 395.8kbits/s speed=0.262x    frame=  163 fps=7.8 q=37.0 size=     256kB time=00:00:05.50 bitrate= 381.4kbits/s speed=0.264x    frame=  168 fps=7.8 q=37.0 size=     256kB time=00:00:05.75 bitrate= 364.8kbits/s speed=0.268x    frame=  172 fps=7.8 q=37.0 size=     256kB time=00:00:05.95 bitrate= 352.5kbits/s speed=0.27x    frame=  176 fps=7.8 q=37.0 size=     256kB time=00:00:06.15 bitrate= 341.1kbits/s speed=0.271x    frame=  180 fps=7.8 q=34.0 size=     256kB time=00:00:06.35 bitrate= 330.3kbits/s speed=0.274x    frame=  185 fps=7.8 q=37.0 size=     256kB time=00:00:06.60 bitrate= 317.8kbits/s speed=0.278x    frame=  189 fps=7.8 q=37.0 size=     256kB time=00:00:06.80 bitrate= 308.5kbits/s speed=0.28x    frame=  193 fps=7.8 q=36.0 size=     256kB time=00:00:07.00 bitrate= 299.6kbits/s speed=0.281x    frame=  196 fps=7.7 q=36.0 size=     256kB time=00:00:07.15 bitrate= 293.4kbits/s speed=0.281x    frame=  196 fps=7.3 q=-1.0 Lsize=     499kB time=00:00:09.65 bitrate= 423.9kbits/s speed=0.358x    
video:497kB audio:0kB subtitle:0kB other streams:0kB global headers:0kB muxing overhead: 0.521091%
[libx264 @ 0x7fe65d801800] frame I:27    Avg QP:27.30  size:  6890
[libx264 @ 0x7fe65d801800] frame P:95    Avg QP:30.97  size:  2399
[libx264 @ 0x7fe65d801800] frame B:74    Avg QP:31.30  size:  1271
[libx264 @ 0x7fe65d801800] consecutive B-frames: 42.3% 17.3% 13.8% 26.5%
[libx264 @ 0x7fe65d801800] mb I  I16..4: 41.2% 48.5% 10.3%
[libx264 @ 0x7fe65d801800] mb P  I16..4: 11.4%  8.4%  0.9%  P16..4: 24.9%  2.6%  1.7%  0.0%  0.0%    skip:50.2%
[libx264 @ 0x7fe65d801800] mb B  I16..4:  1.0%  1.7%  0.1%  B16..8: 24.3%  1.5%  0.1%  direct: 0.8%  skip:70.4%  L0:56.7% L1:42.6% BI: 0.6%
[libx264 @ 0x7fe65d801800] final ratefactor: 31.49
[libx264 @ 0x7fe65d801800] 8x8 transform intra:45.8% inter:86.9%
[libx264 @ 0x7fe65d801800] coded y,uvDC,uvAC intra: 24.9% 12.8% 0.0% inter: 5.1% 0.2% 0.0%
[libx264 @ 0x7fe65d801800] i16 v,h,dc,p: 10% 61%  7% 23%
[libx264 @ 0x7fe65d801800] i8 v,h,dc,ddl,ddr,vr,hd,vl,hu:  6% 41% 24%  3%  4%  2% 10%  1%  9%
[libx264 @ 0x7fe65d801800] i4 v,h,dc,ddl,ddr,vr,hd,vl,hu: 13% 49% 15%  3%  4%  2%  8%  1%  5%
[libx264 @ 0x7fe65d801800] i8c dc,h,v,p: 70% 27%  2%  1%
[libx264 @ 0x7fe65d801800] Weighted P-Frames: Y:1.1% UV:1.1%
[libx264 @ 0x7fe65d801800] ref P L0: 64.8%  9.8% 15.9%  9.1%  0.3%
[libx264 @ 0x7fe65d801800] ref B L0: 81.9% 15.0%  3.1%
[libx264 @ 0x7fe65d801800] ref B L1: 96.4%  3.6%
[libx264 @ 0x7fe65d801800] kb/s:414.72
